<svg xmlns="http://www.w3.org/2000/svg" xmlns:xlink="http://www.w3.org/1999/xlink" version="1.1" x="0px" y="0px" viewBox="0 0 100 100" enable-background="new 0 0 100 100" xml:space="preserve"><path d="M21.486,13.261v-0.312c0-2.778,2.252-5.031,5.031-5.031h46.404c2.779,0,5.032,2.253,5.032,5.031v0.312H21.486z"></path><path d="M78.096,71.439v11.044c0,2.778-2.253,5.031-5.032,5.031H26.659c-2.779,0-5.032-2.253-5.032-5.031V71.439H78.096z   M49.861,74.522c-2.736,0-4.955,2.219-4.955,4.954c0,2.736,2.219,4.955,4.955,4.955c2.735,0,4.954-2.219,4.954-4.955  C54.815,76.741,52.597,74.522,49.861,74.522z"></path><path d="M42.277,88.625c0,1.534-1.243,2.776-2.777,2.776c-1.533,0-2.777-1.242-2.777-2.776H42.277z"></path><path d="M62.973,88.625c0,1.534-1.243,2.776-2.777,2.776c-1.533,0-2.777-1.242-2.777-2.776H62.973z"></path><path d="M78.176,69.716H21.498V14.57h56.678V69.716z M62.327,56.135c0-0.904-0.58-1.637-1.298-1.637H37.349  c-0.718,0-1.298,0.732-1.298,1.637l0,0c0,0.903,0.58,1.636,1.298,1.636h23.681C61.747,57.771,62.327,57.038,62.327,56.135  L62.327,56.135z M50.248,37.329c-1.048-3.14,0.956-4.663,1.758-5.953c4.688-7.596-3.281-10.87-3.281-10.87  c1.054,1.265,0.598,3.873-2.533,6.979C40.221,34.521,50.248,37.329,50.248,37.329z M53.483,35.315c4.604-3.146,0.626-8.4,0.626-8.4  c0.415,0.771-0.438,4.003-1.683,5.475c-2.331,2.76-1.566,4.147-1.396,4.784C51.031,37.174,50.754,37.187,53.483,35.315z"></path></svg>