<?xml version="1.0" encoding="UTF-8" standalone="no"?>
<svg
   xmlns:dc="http://purl.org/dc/elements/1.1/"
   xmlns:cc="http://creativecommons.org/ns#"
   xmlns:rdf="http://www.w3.org/1999/02/22-rdf-syntax-ns#"
   xmlns:svg="http://www.w3.org/2000/svg"
   xmlns="http://www.w3.org/2000/svg"
   xmlns:sodipodi="http://sodipodi.sourceforge.net/DTD/sodipodi-0.dtd"
   xmlns:inkscape="http://www.inkscape.org/namespaces/inkscape"
   version="1.1"
   x="0px"
   y="0px"
   viewBox="0 0 100 100"
   enable-background="new 0 0 100 100"
   xml:space="preserve"
   id="svg2"
   inkscape:version="0.91 r13725"
   sodipodi:docname="boiler.svg"><metadata
     id="metadata18"><rdf:RDF><cc:Work
         rdf:about=""><dc:format>image/svg+xml</dc:format><dc:type
           rdf:resource="http://purl.org/dc/dcmitype/StillImage" /></cc:Work></rdf:RDF></metadata><defs
     id="defs16" /><sodipodi:namedview
     pagecolor="#ffffff"
     bordercolor="#666666"
     borderopacity="1"
     objecttolerance="10"
     gridtolerance="10"
     guidetolerance="10"
     inkscape:pageopacity="0"
     inkscape:pageshadow="2"
     inkscape:window-width="1680"
     inkscape:window-height="1027"
     id="namedview14"
     showgrid="false"
     inkscape:zoom="2.36"
     inkscape:cx="50"
     inkscape:cy="50"
     inkscape:window-x="-8"
     inkscape:window-y="16"
     inkscape:window-maximized="1"
     inkscape:current-layer="svg2" /><path
     d="M21.486,13.261v-0.312c0-2.778,2.252-5.031,5.031-5.031h46.404c2.779,0,5.032,2.253,5.032,5.031v0.312H21.486z"
     id="path4"
     style="fill:#ffffff" /><path
     d="M78.096,71.439v11.044c0,2.778-2.253,5.031-5.032,5.031H26.659c-2.779,0-5.032-2.253-5.032-5.031V71.439H78.096z   M49.861,74.522c-2.736,0-4.955,2.219-4.955,4.954c0,2.736,2.219,4.955,4.955,4.955c2.735,0,4.954-2.219,4.954-4.955  C54.815,76.741,52.597,74.522,49.861,74.522z"
     id="path6"
     style="fill:#ffffff" /><path
     d="M42.277,88.625c0,1.534-1.243,2.776-2.777,2.776c-1.533,0-2.777-1.242-2.777-2.776H42.277z"
     id="path8"
     style="fill:#ffffff" /><path
     d="M62.973,88.625c0,1.534-1.243,2.776-2.777,2.776c-1.533,0-2.777-1.242-2.777-2.776H62.973z"
     id="path10"
     style="fill:#ffffff" /><path
     d="M78.176,69.716H21.498V14.57h56.678V69.716z M62.327,56.135c0-0.904-0.58-1.637-1.298-1.637H37.349  c-0.718,0-1.298,0.732-1.298,1.637l0,0c0,0.903,0.58,1.636,1.298,1.636h23.681C61.747,57.771,62.327,57.038,62.327,56.135  L62.327,56.135z M50.248,37.329c-1.048-3.14,0.956-4.663,1.758-5.953c4.688-7.596-3.281-10.87-3.281-10.87  c1.054,1.265,0.598,3.873-2.533,6.979C40.221,34.521,50.248,37.329,50.248,37.329z M53.483,35.315c4.604-3.146,0.626-8.4,0.626-8.4  c0.415,0.771-0.438,4.003-1.683,5.475c-2.331,2.76-1.566,4.147-1.396,4.784C51.031,37.174,50.754,37.187,53.483,35.315z"
     id="path12"
     style="fill:#ffffff" /></svg>